<?xml version="1.0" ?><!DOCTYPE svg  PUBLIC '-//W3C//DTD SVG 1.1//EN'  'http://www.w3.org/Graphics/SVG/1.1/DTD/svg11.dtd'><svg enable-background="new 0 0 128 128" id="Слой_1" version="1.1" viewBox="0 0 128 128" xml:space="preserve" xmlns="http://www.w3.org/2000/svg" xmlns:xlink="http://www.w3.org/1999/xlink"><g><g><path d="M64,32c-23.2,0-43.9,11-57.1,28c-1.8,2.3-1.8,5.6,0,7.9C20.1,85,40.8,96,64,96s43.9-11,57.1-28    c1.8-2.3,1.8-5.6,0-7.9C107.9,43,87.2,32,64,32z" fill="#FFFFFF"/></g><g><circle cx="64" cy="64" fill="#99D9E6" r="30.2"/></g><g><circle cx="64" cy="64" fill="#938993" r="14.5"/></g><g><path d="M64,79.5c-8.5,0-15.5-6.9-15.5-15.5S55.5,48.5,64,48.5S79.5,55.5,79.5,64S72.5,79.5,64,79.5z M64,50.5    c-7.4,0-13.5,6-13.5,13.5s6,13.5,13.5,13.5s13.5-6,13.5-13.5S71.4,50.5,64,50.5z" fill="#62355C"/></g><g opacity="0.2"><path d="M4,64c5.4,8,12.3,14.8,20.3,20.1c4.9-13.9,16-37.1,38.9-52C38.6,32.3,16.8,44.9,4,64z" fill="#FFFFFF"/></g><g opacity="0.2"><path d="M64,32C39,32,17,44.7,4,64c0,0,58.7-27.6,120,0C111,44.7,89,32,64,32z" fill="#FFFFFF"/></g><g><path d="M64,95.2c-17.2,0-31.2-14-31.2-31.2s14-31.2,31.2-31.2s31.2,14,31.2,31.2S81.2,95.2,64,95.2z M64,34.8    c-16.1,0-29.2,13.1-29.2,29.2S47.9,93.2,64,93.2S93.2,80.1,93.2,64S80.1,34.8,64,34.8z" fill="#62355C"/></g><g><path d="M64,79.5c-8.5,0-15.5-6.9-15.5-15.5S55.5,48.5,64,48.5S79.5,55.5,79.5,64S72.5,79.5,64,79.5z M64,50.5    c-7.4,0-13.5,6-13.5,13.5s6,13.5,13.5,13.5s13.5-6,13.5-13.5S71.4,50.5,64,50.5z" fill="#62355C"/></g><g><path d="M64,97c-0.6,0-1-0.4-1-1s0.4-1,1-1c22.2,0,42.7-10.1,56.4-27.6c1.5-2,1.5-4.7,0-6.7    C106.7,43.1,86.2,33,64,33c-0.6,0-1-0.4-1-1s0.4-1,1-1c22.8,0,43.9,10.4,57.9,28.4c2.1,2.7,2.1,6.4,0,9.1    C107.9,86.6,86.8,97,64,97z" fill="#62355C"/></g><g><path d="M64,97C41.2,97,20.1,86.6,6.1,68.6c-2.1-2.7-2.1-6.4,0-9.1C20.1,41.4,41.2,31,64,31c0.6,0,1,0.4,1,1    s-0.4,1-1,1C41.8,33,21.3,43.1,7.6,60.7c-1.5,2-1.5,4.7,0,6.7C21.3,84.9,41.8,95,64,95c0.6,0,1,0.4,1,1S64.6,97,64,97z" fill="#62355C"/></g></g></svg>